<svg xmlns="http://www.w3.org/2000/svg" width="65.953" height="19.997" viewBox="0 0 65.953 19.997">
  <g id="En_Logo_White-01" transform="translate(-0.12 -1.23)">
    <path id="Path_890" data-name="Path 890" d="M75.573,73.752a1.46,1.46,0,0,1-1.591-.364,1.376,1.376,0,0,1-.379-.971V68.167a1.5,1.5,0,0,0-.45-1.088,1.377,1.377,0,0,0-.965-.389,1.433,1.433,0,0,0-1.031.42,1.38,1.38,0,0,0-.418,1.013v4.3A4.142,4.142,0,0,0,72,75.458a4.071,4.071,0,0,0,3.04,1.256,4.7,4.7,0,0,0,1.709-.331,1.382,1.382,0,0,0,.358-2.328l-.112-.1A1.381,1.381,0,0,0,75.573,73.752Z" transform="translate(-59.96 -55.579)" fill="#5e2d77"/>
    <path id="Path_891" data-name="Path 891" d="M70.682,44.252a1.431,1.431,0,1,1,2.862,0h.715a1.431,1.431,0,1,1,0,2.862h-.715v5.039a1.433,1.433,0,0,0,1.432,1.432,1.4,1.4,0,0,0,1.017-.415l.48-.595a1.359,1.359,0,0,1,1.01-.423,1.438,1.438,0,0,1,1.094,2.362,4.888,4.888,0,0,1-.559.681,4.3,4.3,0,0,1-7.339-3.043v-7.9Z" transform="translate(-59.909 -35.312)" fill="#5e2d77"/>
    <path id="Path_892" data-name="Path 892" d="M78.079,75.47a4.3,4.3,0,0,1-7.339-3.043v-4.3a1.431,1.431,0,1,1,2.862,0v4.3a1.432,1.432,0,0,0,2.865,0V68.88a1.431,1.431,0,1,1,2.862,0v3.547A4.123,4.123,0,0,1,78.079,75.47Z" transform="translate(-59.96 -55.588)" fill="#5e2d77"/>
    <path id="Path_893" data-name="Path 893" d="M73.562,47.959v-.835h.715a1.431,1.431,0,1,0,0-2.862h-.715a1.431,1.431,0,1,0-2.862,0v3.823C70.883,48.048,73.381,47.979,73.562,47.959Z" transform="translate(-59.926 -35.321)" fill="#5e2d77"/>
    <path id="Path_894" data-name="Path 894" d="M172.889,79.028a4.3,4.3,0,0,1-7.339-3.043V72.251a1.431,1.431,0,1,1,2.862,0v3.734a1.432,1.432,0,0,0,2.865,0V74.369a3.948,3.948,0,0,1,.418-1.819,1.431,1.431,0,0,1,2.444,1.013v2.424A4.122,4.122,0,0,1,172.889,79.028Z" transform="translate(-140.459 -59.086)" fill="#5e2d77"/>
    <path id="Path_895" data-name="Path 895" d="M169.837,78.4a1.38,1.38,0,0,0-.729-1.2,1.324,1.324,0,0,1-.284-.214,1.384,1.384,0,0,1-.42-1.013V72.287a1.5,1.5,0,0,0-.45-1.088,1.377,1.377,0,0,0-.965-.389,1.437,1.437,0,0,0-1.032.42,1.38,1.38,0,0,0-.418,1.013v3.734a4.142,4.142,0,0,0,1.256,3.04,4.436,4.436,0,0,0,.981.747,1.4,1.4,0,0,0,2.057-1.248V78.4Z" transform="translate(-140.451 -59.077)" fill="#5e2d77"/>
    <path id="Path_896" data-name="Path 896" d="M286.63,58.533a4.3,4.3,0,0,1,7.339,3.043v2.236a1.431,1.431,0,1,1-2.862,0V61.576a1.432,1.432,0,0,0-2.865,0v5.793a1.431,1.431,0,1,1-2.862,0V61.576A4.117,4.117,0,0,1,286.63,58.533Z" transform="translate(-242.201 -47.59)" fill="#5e2d77"/>
    <path id="Path_897" data-name="Path 897" d="M289.8,60.79a1.425,1.425,0,0,0-1.97-1.629,4.317,4.317,0,0,0-1.221.856,4.119,4.119,0,0,0-1.253,3.043v5.748a1.5,1.5,0,0,0,.448,1.088,1.377,1.377,0,0,0,.965.389,1.437,1.437,0,0,0,1.032-.42,1.38,1.38,0,0,0,.418-1.013V63.06a1.347,1.347,0,0,1,.818-1.285,1.4,1.4,0,0,0,.756-.957C289.8,60.809,289.8,60.8,289.8,60.79Z" transform="translate(-242.184 -49.074)" fill="#5e2d77"/>
    <path id="Path_898" data-name="Path 898" d="M330.609,83.921a4.3,4.3,0,0,1-7.339-3.043v-2.8a1.431,1.431,0,1,1,2.862,0v2.8a1.432,1.432,0,0,0,2.865,0v-.925a1.431,1.431,0,1,1,2.862,0v.925A4.122,4.122,0,0,1,330.609,83.921Z" transform="translate(-274.372 -64.036)" fill="#5e2d77"/>
    <path id="Path_899" data-name="Path 899" d="M268.79,68.99l0,.008A.039.039,0,0,0,268.79,68.99Z" transform="translate(-228.115 -57.532)" fill="#5e2d77"/>
    <circle id="Ellipse_281" data-name="Ellipse 281" cx="1.739" cy="1.739" r="1.739" transform="translate(45.731 1.23)" fill="#5e2d77"/>
    <path id="Path_900" data-name="Path 900" d="M99.2,78a1.38,1.38,0,0,1,.729-1.2,1.324,1.324,0,0,0,.284-.214,1.384,1.384,0,0,0,.42-1.013V71.887a1.5,1.5,0,0,1,.45-1.088,1.377,1.377,0,0,1,.965-.389,1.437,1.437,0,0,1,1.032.42,1.38,1.38,0,0,1,.418,1.013v3.734a4.142,4.142,0,0,1-1.256,3.04,4.436,4.436,0,0,1-.981.747A1.4,1.4,0,0,1,99.2,78.115V78Z" transform="translate(-84.124 -58.737)" fill="#5e2d77"/>
    <path id="Path_901" data-name="Path 901" d="M120.144,64.562a1.432,1.432,0,0,1-2.865,0v-3.7a.715.715,0,0,0-1.431,0v5.011a1.432,1.432,0,0,1-2.865,0V60.86a.715.715,0,0,0-1.431,0v3.7a1.431,1.431,0,1,1-2.862,0v-3.7a3.587,3.587,0,0,1,5.728-2.871,3.585,3.585,0,0,1,5.728,2.871v3.7Z" transform="translate(-92.182 -47.59)" fill="#5e2d77"/>
    <path id="Path_902" data-name="Path 902" d="M120.144,62.127a1.432,1.432,0,0,1-2.865,0V60.86a.715.715,0,0,0-1.431,0v1.266a1.432,1.432,0,0,1-2.865,0V60.86a.715.715,0,0,0-1.431,0v1.266a1.431,1.431,0,1,1-2.862,0V60.86a3.587,3.587,0,0,1,5.728-2.871,3.585,3.585,0,0,1,5.728,2.871v1.266Z" transform="translate(-92.182 -47.59)" fill="#5e2d77"/>
    <circle id="Ellipse_282" data-name="Ellipse 282" cx="1.739" cy="1.739" r="1.739" transform="translate(14.642 1.253)" fill="#5e2d77"/>
    <circle id="Ellipse_283" data-name="Ellipse 283" cx="1.739" cy="1.739" r="1.739" transform="translate(10.585 1.253)" fill="#5e2d77"/>
    <g id="Group_1621" data-name="Group 1621" transform="translate(0.12 9.695)">
      <g id="Group_1619" data-name="Group 1619" transform="translate(0.002)">
        <path id="Path_903" data-name="Path 903" d="M.13,64.018v-2A4.361,4.361,0,0,1,1.636,58.7,5.19,5.19,0,0,1,5.283,57.31a4.976,4.976,0,0,1,3.423,1.265,4.073,4.073,0,0,1,1.423,3.179,3.216,3.216,0,0,1-.177,1.153,1.144,1.144,0,0,1-.542.64,2.223,2.223,0,0,1-.67.232,5.429,5.429,0,0,1-.8.047H3.166v.353a2.022,2.022,0,0,0,.753,1.636,3.029,3.029,0,0,0,2,.623,3.831,3.831,0,0,0,1.765-.447,3.559,3.559,0,0,1,1.129-.447A.984.984,0,0,1,9.637,66a1.533,1.533,0,0,1,.329.883q0,.659-1.188,1.306a6.111,6.111,0,0,1-2.952.648,6.181,6.181,0,0,1-4.106-1.33A4.329,4.329,0,0,1,.13,64.018Zm3.036-1.977H6.6a.883.883,0,0,0,.53-.121.584.584,0,0,0,.152-.472,1.535,1.535,0,0,0-.6-1.253,2.274,2.274,0,0,0-1.47-.483,2.286,2.286,0,0,0-1.435.472,1.492,1.492,0,0,0-.611,1.242v.614Z" transform="translate(-0.13 -57.31)" fill="#5e2d77"/>
      </g>
      <g id="Group_1620" data-name="Group 1620" transform="translate(0 4.608)">
        <path id="Path_904" data-name="Path 904" d="M8.8,91.469a3.546,3.546,0,0,0-1.129.447,3.816,3.816,0,0,1-1.765.447,3.037,3.037,0,0,1-2-.623A2.017,2.017,0,0,1,3.157,90.1v-.744A1.519,1.519,0,0,0,1.639,87.84h0A1.519,1.519,0,0,0,.12,89.359v.581a4.337,4.337,0,0,0,1.588,3.494,6.183,6.183,0,0,0,4.106,1.33,6.1,6.1,0,0,0,2.952-.648q1.189-.648,1.188-1.306a1.533,1.533,0,0,0-.329-.883A.973.973,0,0,0,8.8,91.469Z" transform="translate(-0.12 -87.84)" fill="#5e2d77"/>
      </g>
    </g>
    <path id="Path_905" data-name="Path 905" d="M73.561,42.686a1.35,1.35,0,0,1-.415.989,1.462,1.462,0,0,1-2.041,0,1.352,1.352,0,0,1-.415-.989V37.364a1.352,1.352,0,0,1,.415-.989,1.462,1.462,0,0,1,2.041,0,1.352,1.352,0,0,1,.415.989Z" transform="translate(-59.918 -29.488)" fill="#5e2d77"/>
    <path id="Path_906" data-name="Path 906" d="M314.433,82.276l0-.006Z" transform="translate(-266.866 -68.807)" fill="#5e2d77"/>
    <g id="Group_1622" data-name="Group 1622" transform="translate(54.618 9.709)">
      <path id="Path_907" data-name="Path 907" d="M368.987,58.507l.148.248,1.241.728,1.1.106a6.23,6.23,0,0,0-1.828-1.512h0c-.109-.063-.193-.106-.237-.125a5.73,5.73,0,0,0-8.249,5.291,5.611,5.611,0,0,0,4.264,5.411h0c-.036-.027-.072-.056-.107-.085l0,0c-.035-.029-.066-.057-.1-.086,0,0,0,0,0,0-.032-.029-.063-.059-.092-.089,0,0,0,0,0,0-.029-.03-.057-.06-.085-.091,0,0,0,0-.006-.008-.026-.03-.051-.059-.074-.091a.033.033,0,0,1-.006-.009c-.023-.03-.045-.06-.066-.092l-.009-.014c-.02-.03-.039-.06-.057-.091a.106.106,0,0,0-.011-.018.976.976,0,0,1-.047-.089.159.159,0,0,1-.011-.024c-.014-.029-.026-.057-.038-.088,0-.011-.008-.021-.011-.03-.011-.029-.02-.056-.029-.085l-.009-.036c-.008-.027-.015-.056-.021-.085a.387.387,0,0,1-.006-.042l-.014-.082c0-.017,0-.035,0-.051s0-.051-.006-.077,0-.044,0-.065,0-.044,0-.066,0-.057.008-.088l0-.05c.006-.047.015-.094.024-.142a1.622,1.622,0,0,1,.1-.314l.809,1.017,1.737-.359-.082-1.239a2.824,2.824,0,0,1-1.627-.3l-.1-.056-.08-.045a2.854,2.854,0,0,1,2.611-5.06v0a2.889,2.889,0,0,1,1.084.823l.574-.214-.78-.9-.587-1.011-.184.054a1.685,1.685,0,0,1,.091-.157A1.4,1.4,0,0,1,368.987,58.507Z" transform="translate(-361.161 -57.406)" fill="#5e2d77"/>
      <path id="Path_908" data-name="Path 908" d="M392.037,68.872a6.147,6.147,0,0,0-.246-1.959,5.23,5.23,0,0,0-1.559-2.447,1.911,1.911,0,0,0-1.583-.456,1.483,1.483,0,0,0-1.008.688,1.626,1.626,0,0,0-.213.471,1.083,1.083,0,0,0-.026.118,1.56,1.56,0,0,0-.024.235v.006a.868.868,0,0,0,.421.758,2.855,2.855,0,0,1-1.155,5.276,2.8,2.8,0,0,1-1.111-.092,1.074,1.074,0,0,0-1.162.335,1.193,1.193,0,0,0-.085.124,1.614,1.614,0,0,0-.207.527c-.011.048-.018.1-.024.142l0,.05c0,.029-.006.059-.008.088s0,.044,0,.066,0,.044,0,.065,0,.051.006.077,0,.035,0,.051a.78.78,0,0,0,.014.082.394.394,0,0,1,.006.042c.006.029.014.056.021.085l.009.036c.009.029.018.057.029.085a.176.176,0,0,0,.011.03c.012.03.024.059.038.088a.169.169,0,0,0,.011.024c.015.03.03.06.047.089a.116.116,0,0,0,.011.018c.018.03.036.06.057.091l.009.014c.021.032.044.062.066.092a.033.033,0,0,1,.006.009c.024.03.048.06.074.091,0,0,0,0,.006.008.027.03.056.06.085.091,0,0,0,0,0,0,.03.03.06.06.092.089l0,0q.048.043.1.086v0c.017.015.036.029.053.042h0l.015.012.039.032h0a.384.384,0,0,0,.053.014,3.347,3.347,0,0,0,.764.16q.154.02.308.032l.051,0v0a5.717,5.717,0,0,0,2.657-.488.48.48,0,0,1,.619.069,1.528,1.528,0,0,0,1.793.254,1.588,1.588,0,0,0,.945-1.546C392.027,71.445,392.031,70.158,392.037,68.872Z" transform="translate(-380.587 -62.987)" fill="#5e2d77"/>
    </g>
    <g id="Group_1623" data-name="Group 1623" transform="translate(30.816 9.729)">
      <path id="Path_909" data-name="Path 909" d="M211.307,58.637l.148.248,1.241.728,1.1.106a6.23,6.23,0,0,0-1.828-1.512h0c-.109-.063-.193-.106-.237-.125a5.73,5.73,0,0,0-8.249,5.291,5.611,5.611,0,0,0,4.264,5.411h0c-.036-.027-.072-.056-.107-.085v0c-.035-.029-.066-.057-.1-.086,0,0,0,0,0,0-.032-.029-.063-.059-.092-.089,0,0,0,0,0,0-.029-.03-.057-.06-.085-.091,0,0,0,0-.006-.008-.026-.03-.051-.059-.074-.091a.032.032,0,0,1-.006-.009c-.023-.03-.045-.06-.066-.092l-.009-.014c-.02-.03-.039-.06-.057-.091a.112.112,0,0,0-.011-.018c-.017-.029-.033-.059-.047-.089a.167.167,0,0,1-.011-.024c-.014-.029-.026-.057-.038-.088,0-.011-.008-.021-.011-.03-.011-.029-.02-.056-.029-.085l-.009-.036c-.008-.027-.015-.056-.021-.085a.41.41,0,0,1-.006-.042l-.014-.082c0-.017,0-.035,0-.051s0-.051-.006-.077,0-.044,0-.065,0-.044,0-.066,0-.057.008-.088l0-.05c.006-.047.015-.094.024-.142a1.627,1.627,0,0,1,.1-.314l.809,1.017,1.737-.359-.081-1.239a2.824,2.824,0,0,1-1.627-.3l-.1-.056-.08-.045a2.854,2.854,0,0,1,2.611-5.06v0a2.889,2.889,0,0,1,1.084.823l.574-.214-.78-.9-.587-1.011-.184.054a1.674,1.674,0,0,1,.091-.157A1.416,1.416,0,0,1,211.307,58.637Z" transform="translate(-203.481 -57.536)" fill="#5e2d77"/>
      <path id="Path_910" data-name="Path 910" d="M234.357,69a6.145,6.145,0,0,0-.246-1.959,5.23,5.23,0,0,0-1.559-2.447,1.911,1.911,0,0,0-1.583-.456,1.483,1.483,0,0,0-1.008.688,1.626,1.626,0,0,0-.213.471,1.09,1.09,0,0,0-.026.118,1.554,1.554,0,0,0-.024.235v.006a.868.868,0,0,0,.421.758,2.855,2.855,0,0,1-1.155,5.276,2.8,2.8,0,0,1-1.111-.092,1.074,1.074,0,0,0-1.162.335,1.192,1.192,0,0,0-.085.124,1.615,1.615,0,0,0-.207.527c-.011.048-.018.1-.024.142l0,.05c0,.029-.006.059-.008.088s0,.044,0,.066,0,.044,0,.065,0,.051.006.077,0,.035,0,.051a.761.761,0,0,0,.014.082.407.407,0,0,1,.006.042c.006.029.014.056.021.085l.009.036c.009.029.018.057.029.085a.177.177,0,0,0,.011.03c.012.03.024.059.038.088a.167.167,0,0,0,.011.024c.015.03.03.06.047.089a.116.116,0,0,0,.011.018c.018.03.036.06.057.091l.009.014c.021.032.044.062.066.092a.032.032,0,0,1,.006.009c.024.03.048.06.074.091,0,0,0,0,.006.008.027.03.056.06.085.091,0,0,0,0,0,0,.03.03.06.06.092.089l0,0q.048.043.1.086l0,0c.017.015.036.029.053.042h0l.015.012.039.032h0a.381.381,0,0,0,.053.014,3.346,3.346,0,0,0,.764.16q.154.02.308.032l.051,0v0A5.717,5.717,0,0,0,231,74.086a.48.48,0,0,1,.619.069,1.528,1.528,0,0,0,1.793.254,1.588,1.588,0,0,0,.945-1.546C234.347,71.575,234.351,70.288,234.357,69Z" transform="translate(-222.907 -63.117)" fill="#5e2d77"/>
    </g>
  </g>
</svg>
